<?xml version="1.0" encoding="UTF-8"?>
<svg width="576px" height="321px" viewBox="0 0 576 321" version="1.1" xmlns="http://www.w3.org/2000/svg" xmlns:xlink="http://www.w3.org/1999/xlink">
    <!-- Generator: Sketch 61 (89581) - https://sketch.com -->
    <title>Artboard</title>
    <desc>Created with Sketch.</desc>
    <g id="Artboard" stroke="none" stroke-width="1" fill="none" fill-rule="evenodd">
        <text id="Economic-liberalism.-Copy" font-family="MillerDisplay-Roman, Miller Display" font-size="18" font-weight="normal" fill="#141414">
            <tspan x="23.019" y="207">Economic liberalism.</tspan>
        </text>
        <text id="Economic-conservatis" font-family="MillerDisplay-Roman, Miller Display" font-size="18" font-weight="normal" fill="#141414">
            <tspan x="376.779" y="206">Economic conservatism.</tspan>
        </text>
        <text id="Social-conservatism.-Copy" font-family="MillerDisplay-Roman, Miller Display" font-size="18" font-weight="normal" fill="#141414">
            <tspan x="206" y="21">Social conservatism.</tspan>
        </text>
        <text id="Social-liberalism.-Copy" font-family="MillerDisplay-Roman, Miller Display" font-size="18" font-weight="normal" fill="#141414">
            <tspan x="217" y="311">Social liberalism.</tspan>
        </text>
        <g id="Group-Copy" transform="translate(283.000000, 57.000000)" stroke-linecap="square" stroke-width="3">
            <line x1="0.5" y1="94.5" x2="0.5" y2="182.5" id="Line" stroke="#D5DBF7"></line>
            <line x1="0.5" y1="1.5" x2="0.5" y2="91.5" id="Line-Copy-3" stroke="#F7D5D5"></line>
        </g>
        <g id="Group-2-Copy-4" transform="translate(239.000000, 39.000000)">
            <path d="M9.22998709,-8.26319595e-16 L80.7700129,3.72902526e-16 C83.9794805,-2.16667106e-16 85.143311,0.334172213 86.3166444,0.961677772 C87.4899778,1.58918333 88.4108167,2.51002223 89.0383222,3.68335561 C89.6658278,4.85668899 90,6.0205195 90,9.22998709 L90,33.7700129 C90,36.9794805 89.6658278,38.143311 89.0383222,39.3166444 C88.4108167,40.4899778 87.4899778,41.4108167 86.3166444,42.0383222 C85.143311,42.6658278 83.9794805,43 80.7700129,43 L9.22998709,43 C6.0205195,43 4.85668899,42.6658278 3.68335561,42.0383222 C2.51002223,41.4108167 1.58918333,40.4899778 0.961677772,39.3166444 C0.334172213,38.143311 1.44444737e-16,36.9794805 -2.48601684e-16,33.7700129 L2.48601684e-16,9.22998709 C-1.44444737e-16,6.0205195 0.334172213,4.85668899 0.961677772,3.68335561 C1.58918333,2.51002223 2.51002223,1.58918333 3.68335561,0.961677772 C4.85668899,0.334172213 6.0205195,4.80115481e-16 9.22998709,-8.26319595e-16 Z" id="Rectangle-Copy-4" fill="#F7D5D5"></path>
            <text id="+1.0" font-family="MillerText-Bold, Miller Text" font-size="25.200001" font-weight="bold" fill="#D34444">
                <tspan x="20" y="29">+1.0</tspan>
            </text>
        </g>
        <g id="Group-2-Copy-5" transform="translate(239.000000, 234.000000)">
            <path d="M9.22998709,-8.26319595e-16 L80.7700129,3.72902526e-16 C83.9794805,-2.16667106e-16 85.143311,0.334172213 86.3166444,0.961677772 C87.4899778,1.58918333 88.4108167,2.51002223 89.0383222,3.68335561 C89.6658278,4.85668899 90,6.0205195 90,9.22998709 L90,33.7700129 C90,36.9794805 89.6658278,38.143311 89.0383222,39.3166444 C88.4108167,40.4899778 87.4899778,41.4108167 86.3166444,42.0383222 C85.143311,42.6658278 83.9794805,43 80.7700129,43 L9.22998709,43 C6.0205195,43 4.85668899,42.6658278 3.68335561,42.0383222 C2.51002223,41.4108167 1.58918333,40.4899778 0.961677772,39.3166444 C0.334172213,38.143311 1.44444737e-16,36.9794805 -2.48601684e-16,33.7700129 L2.48601684e-16,9.22998709 C-1.44444737e-16,6.0205195 0.334172213,4.85668899 0.961677772,3.68335561 C1.58918333,2.51002223 2.51002223,1.58918333 3.68335561,0.961677772 C4.85668899,0.334172213 6.0205195,4.80115481e-16 9.22998709,-8.26319595e-16 Z" id="Rectangle-Copy-4" fill="#D5DBF7"></path>
            <text id="-1.0" font-family="MillerText-Bold, Miller Text" font-size="25.200001" font-weight="bold" fill="#4553E2">
                <tspan x="20" y="29">-1.0</tspan>
            </text>
        </g>
        <g id="Group-2-Copy-6" transform="translate(55.000000, 127.000000)">
            <path d="M9.22998709,-8.26319595e-16 L80.7700129,3.72902526e-16 C83.9794805,-2.16667106e-16 85.143311,0.334172213 86.3166444,0.961677772 C87.4899778,1.58918333 88.4108167,2.51002223 89.0383222,3.68335561 C89.6658278,4.85668899 90,6.0205195 90,9.22998709 L90,33.7700129 C90,36.9794805 89.6658278,38.143311 89.0383222,39.3166444 C88.4108167,40.4899778 87.4899778,41.4108167 86.3166444,42.0383222 C85.143311,42.6658278 83.9794805,43 80.7700129,43 L9.22998709,43 C6.0205195,43 4.85668899,42.6658278 3.68335561,42.0383222 C2.51002223,41.4108167 1.58918333,40.4899778 0.961677772,39.3166444 C0.334172213,38.143311 1.44444737e-16,36.9794805 -2.48601684e-16,33.7700129 L2.48601684e-16,9.22998709 C-1.44444737e-16,6.0205195 0.334172213,4.85668899 0.961677772,3.68335561 C1.58918333,2.51002223 2.51002223,1.58918333 3.68335561,0.961677772 C4.85668899,0.334172213 6.0205195,4.80115481e-16 9.22998709,-8.26319595e-16 Z" id="Rectangle-Copy-4" fill="#D5DBF7"></path>
            <line x1="90" y1="-21.75" x2="90" y2="66.25" id="Line" stroke="#D5DBF7" stroke-width="3" stroke-linecap="square" transform="translate(90.000000, 22.000000) rotate(90.000000) translate(-90.000000, -22.000000) "></line>
            <text id="-1.0" font-family="MillerText-Bold, Miller Text" font-size="25.200001" font-weight="bold" fill="#4553E2">
                <tspan x="20" y="29">-1.0</tspan>
            </text>
        </g>
        <g id="Group-2-Copy-7" transform="translate(376.000000, 126.000000)">
            <path d="M62.2299871,-8.26319595e-16 L133.770013,3.72902526e-16 C136.979481,-2.16667106e-16 138.143311,0.334172213 139.316644,0.961677772 C140.489978,1.58918333 141.410817,2.51002223 142.038322,3.68335561 C142.665828,4.85668899 143,6.0205195 143,9.22998709 L143,33.7700129 C143,36.9794805 142.665828,38.143311 142.038322,39.3166444 C141.410817,40.4899778 140.489978,41.4108167 139.316644,42.0383222 C138.143311,42.6658278 136.979481,43 133.770013,43 L62.2299871,43 C59.0205195,43 57.856689,42.6658278 56.6833556,42.0383222 C55.5100222,41.4108167 54.5891833,40.4899778 53.9616778,39.3166444 C53.3341722,38.143311 53,36.9794805 53,33.7700129 L53,9.22998709 C53,6.0205195 53.3341722,4.85668899 53.9616778,3.68335561 C54.5891833,2.51002223 55.5100222,1.58918333 56.6833556,0.961677772 C57.856689,0.334172213 59.0205195,4.80115481e-16 62.2299871,-8.26319595e-16 Z" id="Rectangle-Copy-4" fill="#F7D5D5"></path>
            <line x1="45" y1="-21.75" x2="45" y2="66.25" id="Line" stroke="#F7D5D5" stroke-width="3" stroke-linecap="square" transform="translate(45.000000, 22.000000) rotate(90.000000) translate(-45.000000, -22.000000) "></line>
            <text id="+1.0" font-family="MillerText-Bold, Miller Text" font-size="25.200001" font-weight="bold" fill="#D34444">
                <tspan x="73" y="29">+1.0</tspan>
            </text>
        </g>
        <g id="Group-4-Copy" transform="translate(198.000000, 114.000000)">
            <rect id="Rectangle" fill="#FFFFFF" x="0" y="0" width="171" height="90"></rect>
            <rect id="Rectangle" fill="#EAD068" x="19" y="20" width="135" height="27" rx="4.5"></rect>
            <text id="dw-nominate" font-family="IBMPlexMono-Bold, IBM Plex Mono" font-size="18" font-weight="bold" fill="#83650C">
                <tspan x="27" y="40">dw-nominate</tspan>
            </text>
            <text id="dim1-&amp;-dim2" font-family="IBMPlexMono-Bold, IBM Plex Mono" font-size="18" font-weight="bold" fill="#CCCCCC">
                <tspan x="27" y="69">dim1 &amp; dim2</tspan>
            </text>
        </g>
    </g>
</svg>